<?xml version="1.0" encoding="UTF-8"?>
<svg id="Layer_1" data-name="Layer 1" xmlns="http://www.w3.org/2000/svg" width="61" height="3001" viewBox="0 0 61 3001">
  <defs>
    <style>
      .cls-1 {
        fill: none;
      }

      .cls-1, .cls-2, .cls-3 {
        stroke: #231f20;
        stroke-miterlimit: 10;
      }

      .cls-2 {
        fill: #a7a9ac;
      }

      .cls-3 {
        fill: #ffde17;
      }
    </style>
  </defs>
  <rect class="cls-3" x=".5" y=".5" width="60" height="3000"/>
  <rect class="cls-2" x=".5" y=".5" width="60" height="24.85"/>
  <line class="cls-1" x1="30.5" y1="25.35" x2="60.5" y2="25.35"/>
  <line class="cls-1" x1="30.5" y1="55.35" x2="60.5" y2="55.35"/>
  <line class="cls-1" x1="30.5" y1="85.35" x2="60.5" y2="85.35"/>
  <line class="cls-1" x1="30.5" y1="115.35" x2="60.5" y2="115.35"/>
  <line class="cls-1" x1="30.5" y1="145.35" x2="60.5" y2="145.35"/>
  <line class="cls-1" x1="30.5" y1="175.35" x2="60.5" y2="175.35"/>
  <line class="cls-1" x1="30.5" y1="205.35" x2="60.5" y2="205.35"/>
  <line class="cls-1" x1="30.5" y1="235.35" x2="60.5" y2="235.35"/>
  <line class="cls-1" x1="30.5" y1="265.35" x2="60.5" y2="265.35"/>
  <line class="cls-1" x1="30.5" y1="295.35" x2="60.5" y2="295.35"/>
  <line class="cls-1" x1="30.5" y1="325.35" x2="60.5" y2="325.35"/>
  <line class="cls-1" x1="30.5" y1="355.35" x2="60.5" y2="355.35"/>
  <line class="cls-1" x1="30.5" y1="385.35" x2="60.5" y2="385.35"/>
  <line class="cls-1" x1="30.5" y1="415.35" x2="60.5" y2="415.35"/>
  <line class="cls-1" x1="30.5" y1="445.35" x2="60.5" y2="445.35"/>
  <line class="cls-1" x1="30.5" y1="475.35" x2="60.5" y2="475.35"/>
  <line class="cls-1" x1="30.5" y1="505.35" x2="60.5" y2="505.35"/>
  <line class="cls-1" x1="30.5" y1="535.35" x2="60.5" y2="535.35"/>
  <line class="cls-1" x1="30.5" y1="565.35" x2="60.5" y2="565.35"/>
  <line class="cls-1" x1="30.5" y1="595.35" x2="60.5" y2="595.35"/>
  <line class="cls-1" x1="30.5" y1="625.35" x2="60.5" y2="625.35"/>
  <line class="cls-1" x1="30.5" y1="655.35" x2="60.5" y2="655.35"/>
  <line class="cls-1" x1="30.5" y1="685.35" x2="60.5" y2="685.35"/>
  <line class="cls-1" x1="30.5" y1="715.35" x2="60.5" y2="715.35"/>
  <line class="cls-1" x1="30.5" y1="745.35" x2="60.5" y2="745.35"/>
  <line class="cls-1" x1="30.5" y1="775.35" x2="60.5" y2="775.35"/>
  <line class="cls-1" x1="30.5" y1="805.35" x2="60.5" y2="805.35"/>
  <line class="cls-1" x1="30.5" y1="835.35" x2="60.5" y2="835.35"/>
  <line class="cls-1" x1="30.5" y1="865.35" x2="60.5" y2="865.35"/>
  <line class="cls-1" x1="30.5" y1="895.35" x2="60.5" y2="895.35"/>
  <line class="cls-1" x1="30.5" y1="925.35" x2="60.5" y2="925.35"/>
  <line class="cls-1" x1="30.5" y1="955.35" x2="60.5" y2="955.35"/>
  <line class="cls-1" x1="30.5" y1="985.35" x2="60.5" y2="985.35"/>
  <line class="cls-1" x1="30.5" y1="1015.35" x2="60.5" y2="1015.35"/>
  <line class="cls-1" x1="30.5" y1="1045.35" x2="60.5" y2="1045.35"/>
  <line class="cls-1" x1="30.5" y1="1075.35" x2="60.5" y2="1075.35"/>
  <line class="cls-1" x1="30.5" y1="1105.35" x2="60.5" y2="1105.35"/>
  <line class="cls-1" x1="30.5" y1="1135.35" x2="60.5" y2="1135.35"/>
  <line class="cls-1" x1="30.5" y1="1165.35" x2="60.5" y2="1165.35"/>
  <line class="cls-1" x1="30.5" y1="1195.35" x2="60.5" y2="1195.35"/>
  <line class="cls-1" x1="30.5" y1="1225.35" x2="60.5" y2="1225.35"/>
  <line class="cls-1" x1="30.5" y1="1255.35" x2="60.5" y2="1255.35"/>
  <line class="cls-1" x1="30.5" y1="1285.35" x2="60.5" y2="1285.35"/>
  <line class="cls-1" x1="30.5" y1="1315.35" x2="60.5" y2="1315.35"/>
  <line class="cls-1" x1="30.5" y1="1345.35" x2="60.5" y2="1345.35"/>
  <line class="cls-1" x1="30.5" y1="1375.35" x2="60.5" y2="1375.35"/>
  <line class="cls-1" x1="30.5" y1="1405.35" x2="60.5" y2="1405.35"/>
  <line class="cls-1" x1="30.5" y1="1435.35" x2="60.5" y2="1435.35"/>
  <line class="cls-1" x1="30.5" y1="1465.35" x2="60.5" y2="1465.35"/>
  <line class="cls-1" x1="30.5" y1="1495.35" x2="60.5" y2="1495.35"/>
  <line class="cls-1" x1="30.5" y1="1525.35" x2="60.5" y2="1525.35"/>
  <line class="cls-1" x1="30.5" y1="1555.35" x2="60.5" y2="1555.35"/>
  <line class="cls-1" x1="30.5" y1="1585.35" x2="60.5" y2="1585.35"/>
  <line class="cls-1" x1="30.5" y1="1615.35" x2="60.5" y2="1615.35"/>
  <line class="cls-1" x1="30.5" y1="1645.35" x2="60.5" y2="1645.35"/>
  <line class="cls-1" x1="30.5" y1="1675.35" x2="60.5" y2="1675.35"/>
  <line class="cls-1" x1="30.5" y1="1705.35" x2="60.5" y2="1705.35"/>
  <line class="cls-1" x1="30.5" y1="1735.35" x2="60.5" y2="1735.35"/>
  <line class="cls-1" x1="30.5" y1="1765.35" x2="60.5" y2="1765.35"/>
  <line class="cls-1" x1="30.5" y1="1795.35" x2="60.5" y2="1795.35"/>
  <line class="cls-1" x1="30.5" y1="1825.35" x2="60.5" y2="1825.35"/>
  <line class="cls-1" x1="30.5" y1="1855.35" x2="60.5" y2="1855.35"/>
  <line class="cls-1" x1="30.5" y1="1885.35" x2="60.5" y2="1885.35"/>
  <line class="cls-1" x1="30.5" y1="1915.35" x2="60.5" y2="1915.35"/>
  <line class="cls-1" x1="30.5" y1="1945.35" x2="60.5" y2="1945.35"/>
  <line class="cls-1" x1="30.5" y1="1975.35" x2="60.5" y2="1975.35"/>
  <line class="cls-1" x1="30.5" y1="2005.35" x2="60.5" y2="2005.35"/>
  <line class="cls-1" x1="30.5" y1="2035.35" x2="60.5" y2="2035.35"/>
  <line class="cls-1" x1="30.5" y1="2065.35" x2="60.5" y2="2065.35"/>
  <line class="cls-1" x1="30.5" y1="2095.35" x2="60.5" y2="2095.35"/>
  <line class="cls-1" x1="30.5" y1="2125.35" x2="60.5" y2="2125.35"/>
  <line class="cls-1" x1="30.5" y1="2155.35" x2="60.5" y2="2155.35"/>
  <line class="cls-1" x1="30.5" y1="2185.35" x2="60.5" y2="2185.35"/>
  <line class="cls-1" x1="30.5" y1="2215.35" x2="60.5" y2="2215.35"/>
  <line class="cls-1" x1="30.5" y1="2245.35" x2="60.5" y2="2245.35"/>
  <line class="cls-1" x1="30.5" y1="2275.35" x2="60.5" y2="2275.35"/>
  <line class="cls-1" x1="30.5" y1="2305.35" x2="60.5" y2="2305.35"/>
  <line class="cls-1" x1="30.5" y1="2335.35" x2="60.5" y2="2335.35"/>
  <line class="cls-1" x1="30.5" y1="2365.35" x2="60.5" y2="2365.35"/>
  <line class="cls-1" x1="30.5" y1="2395.35" x2="60.5" y2="2395.35"/>
  <line class="cls-1" x1="30.5" y1="2425.35" x2="60.5" y2="2425.35"/>
  <line class="cls-1" x1="30.5" y1="2455.35" x2="60.5" y2="2455.35"/>
  <line class="cls-1" x1="30.5" y1="2485.35" x2="60.5" y2="2485.35"/>
  <line class="cls-1" x1="30.5" y1="2515.35" x2="60.5" y2="2515.35"/>
  <line class="cls-1" x1="30.5" y1="2545.35" x2="60.5" y2="2545.35"/>
  <line class="cls-1" x1="30.5" y1="2575.35" x2="60.5" y2="2575.35"/>
  <line class="cls-1" x1="30.5" y1="2605.35" x2="60.5" y2="2605.35"/>
  <line class="cls-1" x1="30.5" y1="2635.35" x2="60.5" y2="2635.35"/>
  <line class="cls-1" x1="30.5" y1="2665.35" x2="60.5" y2="2665.35"/>
  <line class="cls-1" x1="30.5" y1="2695.35" x2="60.5" y2="2695.35"/>
  <line class="cls-1" x1="30.5" y1="2725.35" x2="60.5" y2="2725.35"/>
  <line class="cls-1" x1="30.5" y1="2755.35" x2="60.5" y2="2755.35"/>
  <line class="cls-1" x1="30.5" y1="2785.35" x2="60.5" y2="2785.35"/>
  <line class="cls-1" x1="30.5" y1="2815.35" x2="60.5" y2="2815.35"/>
  <line class="cls-1" x1="30.5" y1="2845.35" x2="60.5" y2="2845.35"/>
  <line class="cls-1" x1="30.5" y1="2875.35" x2="60.5" y2="2875.35"/>
  <line class="cls-1" x1="30.5" y1="2905.35" x2="60.5" y2="2905.35"/>
  <line class="cls-1" x1="30.5" y1="2935.35" x2="60.5" y2="2935.35"/>
  <line class="cls-1" x1="30.5" y1="2965.35" x2="60.5" y2="2965.35"/>
  <line class="cls-1" x1="30.5" y1="2995.35" x2="60.5" y2="2995.35"/>
</svg>