<?xml version="1.0" encoding="UTF-8"?>
<svg id="Layer_1" data-name="Layer 1" xmlns="http://www.w3.org/2000/svg" width="61" height="3009.63" viewBox="0 0 61 3009.63">
  <defs>
    <style>
      .cls-1 {
        fill: none;
      }

      .cls-1, .cls-2, .cls-3 {
        stroke: #231f20;
        stroke-miterlimit: 10;
      }

      .cls-2 {
        fill: #bcbec0;
      }

      .cls-3 {
        fill: #ffde17;
      }
    </style>
  </defs>
  <line class="cls-1" x1="30.5" y1="25.47" x2="60.5" y2="25.47"/>
  <rect class="cls-3" x=".5" y="17" width="60" height="2983.62"/>
  <polygon class="cls-2" points=".5 25.97 60.5 39.15 60.5 13.8 .5 .62 .5 25.97"/>
  <line class="cls-1" x1="60.5" y1="39.15" x2="30.5" y2="32.56"/>
  <line class="cls-1" x1="60.5" y1="69.15" x2="30.5" y2="62.56"/>
  <line class="cls-1" x1="60.5" y1="99.15" x2="30.5" y2="92.56"/>
  <line class="cls-1" x1="60.5" y1="129.15" x2="30.5" y2="122.56"/>
  <line class="cls-1" x1="60.5" y1="159.15" x2="30.5" y2="152.56"/>
  <line class="cls-1" x1="60.5" y1="189.15" x2="30.5" y2="182.56"/>
  <line class="cls-1" x1="60.5" y1="219.15" x2="30.5" y2="212.56"/>
  <line class="cls-1" x1="60.5" y1="249.15" x2="30.5" y2="242.56"/>
  <line class="cls-1" x1="60.5" y1="279.15" x2="30.5" y2="272.56"/>
  <line class="cls-1" x1="60.5" y1="309.15" x2="30.5" y2="302.56"/>
  <line class="cls-1" x1="60.5" y1="339.15" x2="30.5" y2="332.56"/>
  <line class="cls-1" x1="60.5" y1="369.15" x2="30.5" y2="362.56"/>
  <line class="cls-1" x1="60.5" y1="399.15" x2="30.5" y2="392.56"/>
  <line class="cls-1" x1="60.5" y1="429.15" x2="30.5" y2="422.56"/>
  <line class="cls-1" x1="60.5" y1="459.15" x2="30.5" y2="452.56"/>
  <line class="cls-1" x1="60.5" y1="489.15" x2="30.5" y2="482.56"/>
  <line class="cls-1" x1="60.5" y1="519.15" x2="30.5" y2="512.56"/>
  <line class="cls-1" x1="60.5" y1="549.15" x2="30.5" y2="542.56"/>
  <line class="cls-1" x1="60.5" y1="579.15" x2="30.5" y2="572.56"/>
  <line class="cls-1" x1="60.5" y1="609.15" x2="30.5" y2="602.56"/>
  <line class="cls-1" x1="60.5" y1="639.15" x2="30.5" y2="632.56"/>
  <line class="cls-1" x1="60.5" y1="669.15" x2="30.5" y2="662.56"/>
  <line class="cls-1" x1="60.5" y1="699.15" x2="30.5" y2="692.56"/>
  <line class="cls-1" x1="60.5" y1="729.15" x2="30.5" y2="722.56"/>
  <line class="cls-1" x1="60.5" y1="759.15" x2="30.5" y2="752.56"/>
  <line class="cls-1" x1="60.5" y1="789.15" x2="30.5" y2="782.56"/>
  <line class="cls-1" x1="60.5" y1="819.15" x2="30.5" y2="812.56"/>
  <line class="cls-1" x1="60.5" y1="849.15" x2="30.5" y2="842.56"/>
  <line class="cls-1" x1="60.5" y1="879.15" x2="30.5" y2="872.56"/>
  <line class="cls-1" x1="60.5" y1="909.15" x2="30.5" y2="902.56"/>
  <line class="cls-1" x1="60.5" y1="939.15" x2="30.5" y2="932.56"/>
  <line class="cls-1" x1="60.5" y1="969.15" x2="30.5" y2="962.56"/>
  <line class="cls-1" x1="60.5" y1="999.15" x2="30.5" y2="992.56"/>
  <line class="cls-1" x1="60.5" y1="1029.15" x2="30.5" y2="1022.56"/>
  <line class="cls-1" x1="60.5" y1="1059.15" x2="30.5" y2="1052.56"/>
  <line class="cls-1" x1="60.5" y1="1089.15" x2="30.5" y2="1082.56"/>
  <line class="cls-1" x1="60.5" y1="1119.15" x2="30.5" y2="1112.56"/>
  <line class="cls-1" x1="60.5" y1="1149.15" x2="30.5" y2="1142.56"/>
  <line class="cls-1" x1="60.5" y1="1179.15" x2="30.5" y2="1172.56"/>
  <line class="cls-1" x1="60.5" y1="1209.15" x2="30.5" y2="1202.56"/>
  <line class="cls-1" x1="60.5" y1="1239.15" x2="30.5" y2="1232.56"/>
  <line class="cls-1" x1="60.5" y1="1269.15" x2="30.5" y2="1262.56"/>
  <line class="cls-1" x1="60.5" y1="1299.15" x2="30.5" y2="1292.56"/>
  <line class="cls-1" x1="60.5" y1="1329.15" x2="30.5" y2="1322.56"/>
  <line class="cls-1" x1="60.5" y1="1359.15" x2="30.5" y2="1352.56"/>
  <line class="cls-1" x1="60.5" y1="1389.15" x2="30.5" y2="1382.56"/>
  <line class="cls-1" x1="60.5" y1="1419.15" x2="30.5" y2="1412.56"/>
  <line class="cls-1" x1="60.5" y1="1449.15" x2="30.5" y2="1442.56"/>
  <line class="cls-1" x1="60.5" y1="1479.15" x2="30.5" y2="1472.56"/>
  <line class="cls-1" x1="60.5" y1="1509.15" x2="30.5" y2="1502.56"/>
  <line class="cls-1" x1="60.5" y1="1539.15" x2="30.5" y2="1532.56"/>
  <line class="cls-1" x1="60.5" y1="1569.15" x2="30.5" y2="1562.56"/>
  <line class="cls-1" x1="60.5" y1="1599.15" x2="30.5" y2="1592.56"/>
  <line class="cls-1" x1="60.5" y1="1629.15" x2="30.5" y2="1622.56"/>
  <line class="cls-1" x1="60.5" y1="1659.15" x2="30.5" y2="1652.56"/>
  <line class="cls-1" x1="60.5" y1="1689.15" x2="30.5" y2="1682.56"/>
  <line class="cls-1" x1="60.5" y1="1719.15" x2="30.5" y2="1712.56"/>
  <line class="cls-1" x1="60.5" y1="1749.15" x2="30.5" y2="1742.56"/>
  <line class="cls-1" x1="60.5" y1="1779.15" x2="30.5" y2="1772.56"/>
  <line class="cls-1" x1="60.5" y1="1809.15" x2="30.5" y2="1802.56"/>
  <line class="cls-1" x1="60.5" y1="1839.15" x2="30.5" y2="1832.56"/>
  <line class="cls-1" x1="60.5" y1="1869.15" x2="30.5" y2="1862.56"/>
  <line class="cls-1" x1="60.5" y1="1899.15" x2="30.5" y2="1892.56"/>
  <line class="cls-1" x1="60.5" y1="1929.15" x2="30.5" y2="1922.56"/>
  <line class="cls-1" x1="60.5" y1="1959.15" x2="30.5" y2="1952.56"/>
  <line class="cls-1" x1="60.5" y1="1989.15" x2="30.5" y2="1982.56"/>
  <line class="cls-1" x1="60.5" y1="2019.15" x2="30.5" y2="2012.56"/>
  <line class="cls-1" x1="60.5" y1="2049.15" x2="30.5" y2="2042.56"/>
  <line class="cls-1" x1="60.5" y1="2079.15" x2="30.5" y2="2072.56"/>
  <line class="cls-1" x1="60.5" y1="2109.15" x2="30.5" y2="2102.56"/>
  <line class="cls-1" x1="60.5" y1="2139.15" x2="30.5" y2="2132.56"/>
  <line class="cls-1" x1="60.5" y1="2169.15" x2="30.5" y2="2162.56"/>
  <line class="cls-1" x1="60.5" y1="2199.15" x2="30.5" y2="2192.56"/>
  <line class="cls-1" x1="60.5" y1="2229.15" x2="30.5" y2="2222.56"/>
  <line class="cls-1" x1="60.5" y1="2259.15" x2="30.5" y2="2252.56"/>
  <line class="cls-1" x1="60.5" y1="2289.15" x2="30.5" y2="2282.56"/>
  <line class="cls-1" x1="60.5" y1="2319.15" x2="30.5" y2="2312.56"/>
  <line class="cls-1" x1="60.5" y1="2349.15" x2="30.5" y2="2342.56"/>
  <line class="cls-1" x1="60.5" y1="2379.15" x2="30.5" y2="2372.56"/>
  <line class="cls-1" x1="60.5" y1="2409.15" x2="30.5" y2="2402.56"/>
  <line class="cls-1" x1="60.5" y1="2439.15" x2="30.5" y2="2432.56"/>
  <line class="cls-1" x1="60.5" y1="2469.15" x2="30.5" y2="2462.56"/>
  <line class="cls-1" x1="60.5" y1="2499.15" x2="30.5" y2="2492.56"/>
  <line class="cls-1" x1="60.5" y1="2529.15" x2="30.5" y2="2522.56"/>
  <line class="cls-1" x1="60.5" y1="2559.15" x2="30.5" y2="2552.56"/>
  <line class="cls-1" x1="60.5" y1="2589.15" x2="30.5" y2="2582.56"/>
  <line class="cls-1" x1="60.5" y1="2619.15" x2="30.5" y2="2612.56"/>
  <line class="cls-1" x1="60.5" y1="2649.15" x2="30.5" y2="2642.56"/>
  <line class="cls-1" x1="60.5" y1="2679.15" x2="30.5" y2="2672.56"/>
  <line class="cls-1" x1="60.5" y1="2709.15" x2="30.5" y2="2702.56"/>
  <line class="cls-1" x1="60.5" y1="2739.15" x2="30.5" y2="2732.56"/>
  <line class="cls-1" x1="60.5" y1="2769.15" x2="30.5" y2="2762.56"/>
  <line class="cls-1" x1="60.5" y1="2799.15" x2="30.5" y2="2792.56"/>
  <line class="cls-1" x1="60.5" y1="2829.15" x2="30.5" y2="2822.56"/>
  <line class="cls-1" x1="60.5" y1="2859.15" x2="30.5" y2="2852.56"/>
  <line class="cls-1" x1="60.5" y1="2889.15" x2="30.5" y2="2882.56"/>
  <line class="cls-1" x1="60.5" y1="2919.15" x2="30.5" y2="2912.56"/>
  <line class="cls-1" x1="60.5" y1="2949.15" x2="30.5" y2="2942.56"/>
  <line class="cls-1" x1="60.5" y1="2979.15" x2="30.5" y2="2972.56"/>
  <line class="cls-1" x1="60.5" y1="3009.15" x2="30.5" y2="3002.56"/>
</svg>